<svg width="19" height="20" viewBox="0 0 19 20" fill="none" xmlns="http://www.w3.org/2000/svg">
<path d="M9.8125 5.39258C7.1875 5.39258 5.0957 7.52539 5.0957 10.1094C5.0957 12.7344 7.1875 14.8262 9.8125 14.8262C12.3965 14.8262 14.5293 12.7344 14.5293 10.1094C14.5293 7.52539 12.3965 5.39258 9.8125 5.39258ZM9.8125 13.1855C8.13086 13.1855 6.73633 11.832 6.73633 10.1094C6.73633 8.42773 8.08984 7.07422 9.8125 7.07422C11.4941 7.07422 12.8477 8.42773 12.8477 10.1094C12.8477 11.832 11.4941 13.1855 9.8125 13.1855ZM15.8008 5.22852C15.8008 4.61328 15.3086 4.12109 14.6934 4.12109C14.0781 4.12109 13.5859 4.61328 13.5859 5.22852C13.5859 5.84375 14.0781 6.33594 14.6934 6.33594C15.3086 6.33594 15.8008 5.84375 15.8008 5.22852ZM18.918 6.33594C18.8359 4.85938 18.5078 3.54688 17.4414 2.48047C16.375 1.41406 15.0625 1.08594 13.5859 1.00391C12.0684 0.921875 7.51562 0.921875 5.99805 1.00391C4.52148 1.08594 3.25 1.41406 2.14258 2.48047C1.07617 3.54688 0.748047 4.85938 0.666016 6.33594C0.583984 7.85352 0.583984 12.4062 0.666016 13.9238C0.748047 15.4004 1.07617 16.6719 2.14258 17.7793C3.25 18.8457 4.52148 19.1738 5.99805 19.2559C7.51562 19.3379 12.0684 19.3379 13.5859 19.2559C15.0625 19.1738 16.375 18.8457 17.4414 17.7793C18.5078 16.6719 18.8359 15.4004 18.918 13.9238C19 12.4062 19 7.85352 18.918 6.33594ZM16.9492 15.5234C16.6621 16.3438 16.0059 16.959 15.2266 17.2871C13.9961 17.7793 11.125 17.6562 9.8125 17.6562C8.45898 17.6562 5.58789 17.7793 4.39844 17.2871C3.57812 16.959 2.96289 16.3438 2.63477 15.5234C2.14258 14.334 2.26562 11.4629 2.26562 10.1094C2.26562 8.79688 2.14258 5.92578 2.63477 4.69531C2.96289 3.91602 3.57812 3.30078 4.39844 2.97266C5.58789 2.48047 8.45898 2.60352 9.8125 2.60352C11.125 2.60352 13.9961 2.48047 15.2266 2.97266C16.0059 3.25977 16.6211 3.91602 16.9492 4.69531C17.4414 5.92578 17.3184 8.79688 17.3184 10.1094C17.3184 11.4629 17.4414 14.334 16.9492 15.5234Z" fill="white"/>
</svg>
