<svg width="22" height="18" viewBox="0 0 22 18" fill="none" xmlns="http://www.w3.org/2000/svg">
<path d="M19.4512 4.84375C20.2715 4.22852 21.0098 3.49023 21.584 2.62891C20.8457 2.95703 19.9844 3.20312 19.123 3.28516C20.0254 2.75195 20.6816 1.93164 21.0098 0.90625C20.1895 1.39844 19.2461 1.76758 18.3027 1.97266C17.4824 1.11133 16.375 0.619141 15.1445 0.619141C12.7656 0.619141 10.8379 2.54688 10.8379 4.92578C10.8379 5.25391 10.8789 5.58203 10.9609 5.91016C7.39258 5.70508 4.19336 3.98242 2.06055 1.39844C1.69141 2.01367 1.48633 2.75195 1.48633 3.57227C1.48633 5.04883 2.22461 6.36133 3.41406 7.14062C2.7168 7.09961 2.01953 6.93555 1.44531 6.60742V6.64844C1.44531 8.74023 2.92188 10.4629 4.89062 10.873C4.5625 10.9551 4.15234 11.0371 3.7832 11.0371C3.49609 11.0371 3.25 10.9961 2.96289 10.9551C3.49609 12.6777 5.0957 13.9082 6.98242 13.9492C5.50586 15.0977 3.66016 15.7949 1.65039 15.7949C1.28125 15.7949 0.953125 15.7539 0.625 15.7129C2.51172 16.9434 4.76758 17.6406 7.22852 17.6406C15.1445 17.6406 19.4512 11.1191 19.4512 5.41797C19.4512 5.21289 19.4512 5.04883 19.4512 4.84375Z" fill="white"/>
</svg>
