<svg width="24" height="16" viewBox="0 0 24 16" fill="none" xmlns="http://www.w3.org/2000/svg">
<path d="M22.7051 2.73633C23.1973 4.45898 23.1973 8.15039 23.1973 8.15039C23.1973 8.15039 23.1973 11.8008 22.7051 13.5645C22.459 14.5488 21.6797 15.2871 20.7363 15.5332C18.9727 15.9844 12 15.9844 12 15.9844C12 15.9844 4.98633 15.9844 3.22266 15.5332C2.2793 15.2871 1.5 14.5488 1.25391 13.5645C0.761719 11.8008 0.761719 8.15039 0.761719 8.15039C0.761719 8.15039 0.761719 4.45898 1.25391 2.73633C1.5 1.75195 2.2793 0.972656 3.22266 0.726562C4.98633 0.234375 12 0.234375 12 0.234375C12 0.234375 18.9727 0.234375 20.7363 0.726562C21.6797 0.972656 22.459 1.75195 22.7051 2.73633ZM9.70312 11.4727L15.5273 8.15039L9.70312 4.82812V11.4727Z" fill="white"/>
</svg>
